<svg id="visual" viewBox="0 0 900 600" width="900" height="600" xmlns="http://www.w3.org/2000/svg" xmlns:xlink="http://www.w3.org/1999/xlink" version="1.1"><rect x="0" y="0" width="900" height="600" fill="#001220"></rect><defs><linearGradient id="grad1_0" x1="33.3%" y1="0%" x2="100%" y2="100%"><stop offset="20%" stop-color="#001220" stop-opacity="1"></stop><stop offset="80%" stop-color="#001220" stop-opacity="1"></stop></linearGradient></defs><defs><linearGradient id="grad2_0" x1="0%" y1="0%" x2="66.7%" y2="100%"><stop offset="20%" stop-color="#001220" stop-opacity="1"></stop><stop offset="80%" stop-color="#001220" stop-opacity="1"></stop></linearGradient></defs><g transform="translate(900, 0)"><path d="M0 351.5C-32.8 333.2 -65.5 314.9 -98.6 303.4C-131.6 291.9 -165 287.1 -198.7 273.4C-232.4 259.8 -266.4 237.2 -284.4 206.6C-302.4 176 -304.4 137.4 -312.9 101.7C-321.4 65.9 -336.5 32.9 -351.5 0L0 0Z" fill="#FFFFFF"></path></g><g transform="translate(0, 600)"><path d="M0 -351.5C34.2 -335.8 68.5 -320.1 98.9 -304.3C129.3 -288.6 155.8 -272.8 187.5 -258.1C219.2 -243.4 256 -229.8 282.3 -205.1C308.7 -180.5 324.5 -144.7 334.3 -108.6C344.1 -72.6 347.8 -36.3 351.5 0L0 0Z" fill="#FFFFFF"></path></g></svg>